<svg aria-hidden="true" style="position: absolute; width: 0; height: 0; overflow: hidden;" version="1.1" xmlns="http://www.w3.org/2000/svg" xmlns:xlink="http://www.w3.org/1999/xlink">
<defs>
<symbol id="icon-8" viewBox="0 0 76 32">
<path fill="#db414b" style="fill: var(--color1, #db414b)" d="M59.986 0c-10.030 0-18.329 7.925-21.993 12.083-3.664-4.158-11.963-12.083-21.993-12.083-8.823 0-16 7.177-16 16s7.177 16 16 16c10.029 0 18.329-7.925 21.993-12.083 3.664 4.158 11.963 12.083 21.993 12.083 8.823 0 16-7.177 16-16s-7.177-16-16-16zM29.964 20.874c-5.996 5.099-10.902 6.171-13.964 6.171-6.089 0-11.045-4.954-11.045-11.045s4.954-11.045 11.045-11.045c8.52 0 16.018 7.753 18.82 11.048-1.033 1.217-2.707 3.044-4.856 4.871zM59.986 27.045c-8.517 0-16.014-7.748-18.817-11.045 2.803-3.296 10.3-11.045 18.817-11.045 6.091 0 11.044 4.955 11.044 11.045 0 6.091-4.954 11.045-11.044 11.045z"></path>
</symbol>
<symbol id="icon-px-Apple_Pay_logo-1" viewBox="0 0 79 32">
<path d="M0 0h78.933v32h-78.933v-32z"></path>
</symbol>
<symbol id="icon-px-MasterCard_Logo-1" viewBox="0 0 54 32">
<path d="M0 0h54v32h-54v-32z"></path>
</symbol>
<symbol id="icon-Button_up" viewBox="0 0 32 32">
<path d="M2.56 0h26.88c1.414 0 2.56 1.146 2.56 2.56v26.88c0 1.414-1.146 2.56-2.56 2.56h-26.88c-1.414 0-2.56-1.146-2.56-2.56v-26.88c0-1.414 1.146-2.56 2.56-2.56z"></path>
<path fill="none" stroke="#fff" style="stroke: var(--color2, #fff)" stroke-linejoin="round" stroke-linecap="round" stroke-miterlimit="4" stroke-width="1.28" d="M10.909 18.182l4.727-5.091 4.727 5.091"></path>
</symbol>
<symbol id="icon-camera" viewBox="0 0 35 32">
<path fill="#979797" style="fill: var(--color3, #979797)" d="M32.536 10.088l-0.641-0.173 0.211-0.314c0.079-0.117 0.138-0.247 0.175-0.384 0.183-0.681-0.219-1.383-0.898-1.567l-28.099-7.606c-0.679-0.184-1.378 0.22-1.561 0.902l-1.678 6.259c-0.184 0.681 0.217 1.383 0.895 1.567l0.807 0.218-0.99 3.686c-0.182 0.681 0.22 1.383 0.898 1.567l8.554 2.316-0.478 2.079c-0.059 0.256 0.095 0.512 0.347 0.58l1.538 0.416v5.115c0 0.044-0.036 0.080-0.079 0.080h-6.693v-0.792c-0.002-1.903-1.538-3.445-3.434-3.447-0.268 0-0.486 0.218-0.486 0.488v10.434c0 0.269 0.218 0.488 0.486 0.488 1.895-0.002 3.432-1.545 3.434-3.447v-0.791h6.692c1.656-0.002 2.997-1.349 2.998-3.011v-4.325l1.38 0.373c0.041 0.011 0.084 0.017 0.127 0.017l-0.001 0.003c0.225 0 0.42-0.155 0.472-0.375l0.484-2.046 8.356 2.262c0.109 0.030 0.221 0.045 0.333 0.045l-0.001-0.002c0.575-0.001 1.078-0.389 1.228-0.946l0.103-0.382 1.36 0.368c0.107 0.029 0.219 0.044 0.33 0.044 0.486 0.001 0.931-0.276 1.147-0.715l3.497-7.189c0.036-0.073 0.064-0.149 0.086-0.228 0.183-0.681-0.218-1.383-0.898-1.567zM1.192 7.831c-0.161-0.044-0.256-0.21-0.212-0.371l1.681-6.26c0.036-0.132 0.155-0.224 0.291-0.224 0.027 0 0.053 0.004 0.079 0.011l28.099 7.608c0.032 0.008 0.063 0.023 0.090 0.042 0.138 0.094 0.175 0.283 0.081 0.421l-3.949 5.855-26.159-7.081c-0.001-0.001-0.001-0.001-0.001-0.001zM3.871 28.553c-0.001 1.177-0.828 2.19-1.977 2.423v-9.361c1.149 0.234 1.975 1.247 1.977 2.424v4.514zM13.562 24.753c-0.001 1.123-0.908 2.033-2.027 2.035h-6.693v-0.981h6.692c0.58-0.001 1.050-0.473 1.051-1.055v-4.853l0.976 0.264v4.59h0.001zM15.684 19.727l-3.456-0.936c-0.003-0.001-0.006-0.001-0.009-0.002l-1.435-0.388 0.365-1.586 4.91 1.33-0.374 1.583zM25.605 19.717l-23.696-6.413c-0.161-0.044-0.256-0.211-0.213-0.373l0.988-3.686 24.28 6.574-0.99 3.684c-0.044 0.161-0.209 0.257-0.37 0.213zM32.476 11.454l-3.497 7.189c-0.064 0.13-0.211 0.197-0.35 0.159l-1.36-0.368 0.74-2.753 3.314-4.914 0.959 0.26c0.020 0.005 0.038 0.012 0.056 0.021 0.15 0.074 0.211 0.256 0.138 0.406z"></path>
</symbol>
<symbol id="icon-Decor_01" viewBox="0 0 121 32">
<path d="M63.572 17.281c1.115 0 2.016-0.906 2.016-2.016 0-1.115-0.906-2.016-2.016-2.016-1.115 0-2.016 0.906-2.016 2.016 0 1.115 0.901 2.016 2.016 2.016z"></path>
<path d="M36.498 4.032c1.115 0 2.016-0.906 2.016-2.016 0-1.115-0.906-2.016-2.016-2.016-1.115 0-2.016 0.906-2.016 2.016 0 1.115 0.901 2.016 2.016 2.016z"></path>
<path fill="none" stroke="#000" style="stroke: var(--color4, #000)" stroke-linejoin="miter" stroke-linecap="butt" stroke-miterlimit="10" stroke-width="1.3677" d="M0.953 2.016c35.195 0 0 0 35.643 0"></path>
<path fill="none" stroke="#000" style="stroke: var(--color4, #000)" stroke-linejoin="miter" stroke-linecap="butt" stroke-miterlimit="10" stroke-width="1.3677" d="M1.185 15.065c66.822 0 22.45 0.089 62.369 0"></path>
<path d="M118.873 31.107c1.115 0 2.016-0.906 2.016-2.016 0-1.115-0.905-2.016-2.016-2.016-1.115 0-2.016 0.906-2.016 2.016 0 1.115 0.901 2.016 2.016 2.016z"></path>
<path fill="none" stroke="#000" style="stroke: var(--color4, #000)" stroke-linejoin="miter" stroke-linecap="butt" stroke-miterlimit="10" stroke-width="1.3677" d="M1.185 29.179c39.784 0 77.867 0 117.786-0.088"></path>
</symbol>
<symbol id="icon-fire_1f525-1" viewBox="0 0 32 32">
<path d="M0 0h32v32h-32v-32z"></path>
</symbol>
<symbol id="icon-Frame" viewBox="0 0 42 32">
<path d="M41.48 5.007c-0.488-1.958-1.919-3.501-3.732-4.029-3.315-0.978-16.571-0.978-16.571-0.978s-13.258 0-16.571 0.942c-1.779 0.527-3.244 2.108-3.732 4.066-0.873 3.576-0.873 10.992-0.873 10.992s0 7.454 0.872 10.993c0.489 1.958 1.919 3.501 3.733 4.029 3.349 0.978 16.571 0.978 16.571 0.978s13.257 0 16.571-0.942c1.814-0.527 3.244-2.071 3.733-4.028 0.872-3.576 0.872-10.993 0.872-10.993s0.035-7.454-0.873-11.031zM16.955 22.852v-13.704l11.024 6.852-11.024 6.852z"></path>
</symbol>
<symbol id="icon-GOOGLE-PLAY" viewBox="0 0 68 32">
<path d="M0 0h67.918v32h-67.918v-32z"></path>
</symbol>
<symbol id="icon-Google_Pay_GPay_Logo_2018-2020-1" viewBox="0 0 83 32">
<path d="M0 0h83.2v32h-83.2v-32z"></path>
</symbol>
<symbol id="icon-Group" viewBox="0 0 31 32">
<path fill="#fff" style="fill: var(--color2, #fff)" d="M22.651 32c-0.055 0-0.108-0.011-0.16-0.032-0.107-0.043-0.192-0.128-0.236-0.237l-1.612-3.887-1.915 1.723c-0.080 0.084-0.225 0.144-0.374 0.144-0.314 0-0.569-0.261-0.569-0.581v-10.578c0-0.321 0.256-0.581 0.569-0.581 0.133 0 0.262 0.047 0.371 0.137l7.513 7.753c0.117 0.147 0.163 0.276 0.163 0.41 0 0.32-0.256 0.581-0.57 0.581h-2.552l1.553 3.749c0.092 0.221-0.009 0.476-0.225 0.572l-1.783 0.789c-0.055 0.025-0.113 0.036-0.172 0.036zM20.807 26.675c0.032 0 0.064 0.004 0.096 0.011 0.135 0.032 0.247 0.127 0.301 0.257l1.676 4.040 0.993-0.439-1.64-3.958c-0.056-0.135-0.042-0.291 0.038-0.412s0.215-0.196 0.359-0.196h2.513l-6.497-6.705v9.2l1.876-1.688c0.079-0.072 0.181-0.11 0.285-0.11zM18.169 28.902c-0.012 0.010-0.023 0.019-0.033 0.030l0.033-0.030zM25.592 26.442v0z"></path>
<path fill="#fff" style="fill: var(--color2, #fff)" d="M31.28 2.34c-0.026-1.266-0.983-2.267-2.229-2.326-0.496-0.023-19.117-0.010-26.57-0.006-1.517 0.001-2.477 0.993-2.479 2.54-0.002 2.108-0.001 4.217 0 6.325h-0.002c0 0 0.002 9.722 0.004 12.831 0 0.165 0.001 0.332 0.029 0.494 0.217 1.258 1.131 2.027 2.434 2.031 2.341 0.007 4.682 0.007 7.023 0h8.889c-0.026-0.308-0.032-0.621 0.001-0.926h-7.937c-0.011-0.003-0.017-0.004-0.016-0.001h-0.37c-2.514 0-5.027 0.002-7.54-0.001-1.015-0.001-1.602-0.599-1.602-1.629-0.001-3.098 0.004-12.8 0.004-12.8h-0.004c0.001-0.867 0-1.733 0-2.622h29.459c0 0.155 0 0.284 0 0.412 0 4.987 0 9.974 0 14.961 0 1.098-0.573 1.676-1.66 1.677-0.455 0-3.169-0.007-5.844-0.008 0.273 0.185 0.538 0.383 0.805 0.578 0.067 0.049 0.106 0.113 0.12 0.18 0.023 0.022 0.047 0.044 0.070 0.067 0.032 0.033 0.053 0.070 0.066 0.109 2.403-0.002 4.672-0.004 5.138-0.006 0.115-0.001 0.233-0.017 0.345-0.043 1.159-0.269 1.87-1.191 1.87-2.445 0.002-5.684 0.001-11.369 0.001-17.053 0-0.78 0.011-1.56-0.005-2.34zM30.373 4.896c0 0.125 0 0.25 0 0.386h-29.459v-1.55c0-0.39-0.001-0.78 0-1.17 0.003-1.040 0.572-1.62 1.603-1.62 7.42-0.001 25.961-0.006 26.387 0.002 0.873 0.016 1.459 0.616 1.467 1.507 0.008 0.815 0.002 1.63 0.002 2.446z"></path>
<path fill="#fff" style="fill: var(--color2, #fff)" d="M9.11 2.248c-0.446 0.001-0.849 0.406-0.853 0.86-0.004 0.472 0.409 0.886 0.871 0.873 0.452-0.013 0.836-0.418 0.832-0.877s-0.399-0.857-0.851-0.856z"></path>
<path fill="#fff" style="fill: var(--color2, #fff)" d="M3.905 2.248c-0.469-0.009-0.855 0.39-0.853 0.878 0.002 0.47 0.381 0.857 0.838 0.856 0.451-0.001 0.837-0.397 0.841-0.861 0.004-0.467-0.372-0.864-0.826-0.873z"></path>
<path fill="#fff" style="fill: var(--color2, #fff)" d="M6.52 2.248c-0.446-0.016-0.851 0.375-0.866 0.834-0.015 0.48 0.371 0.895 0.837 0.898 0.454 0.004 0.84-0.385 0.847-0.852s-0.362-0.865-0.819-0.88z"></path>
<path fill="#fff" style="fill: var(--color2, #fff)" d="M24.94 11.21h-19.286c-0.262 0-0.473-0.215-0.473-0.482s0.212-0.482 0.473-0.482h19.286c0.262 0 0.473 0.215 0.473 0.482s-0.212 0.482-0.473 0.482z"></path>
<path fill="#fff" style="fill: var(--color2, #fff)" d="M24.94 19.304h-19.286c-0.262 0-0.473-0.215-0.473-0.482s0.212-0.482 0.473-0.482h19.286c0.262 0 0.473 0.215 0.473 0.482s-0.212 0.482-0.473 0.482z"></path>
<path fill="#fff" style="fill: var(--color2, #fff)" d="M20.226 15.257h-14.571c-0.262 0-0.473-0.215-0.473-0.482s0.212-0.482 0.473-0.482h14.572c0.262 0 0.473 0.215 0.473 0.482s-0.212 0.482-0.474 0.482z"></path>
</symbol>
<symbol id="icon-Icon_01" viewBox="0 0 42 32">
<path fill="#db414b" style="fill: var(--color1, #db414b)" d="M0.873 2.537c5.722 4.846 15.762 13.371 18.713 16.029 0.396 0.359 0.821 0.541 1.262 0.541s0.864-0.181 1.26-0.538c2.953-2.661 12.993-11.187 18.715-16.032 0.356-0.301 0.411-0.83 0.122-1.198-0.667-0.851-1.661-1.338-2.726-1.338h-34.742c-1.065 0-2.059 0.488-2.726 1.338-0.288 0.368-0.234 0.897 0.122 1.198z"></path>
<path fill="#db414b" style="fill: var(--color1, #db414b)" d="M41.186 5.163c-0.308-0.143-0.67-0.093-0.926 0.126-6.345 5.379-14.444 12.274-16.992 14.57-1.43 1.291-3.415 1.291-4.848-0.002-2.716-2.447-11.81-10.178-16.99-14.569-0.258-0.219-0.621-0.267-0.926-0.126-0.307 0.143-0.504 0.45-0.504 0.788v21.843c0 1.916 1.558 3.474 3.474 3.474h34.742c1.916 0 3.474-1.558 3.474-3.474v-21.843c0-0.338-0.197-0.646-0.504-0.788z"></path>
</symbol>
<symbol id="icon-insta" viewBox="0 0 32 32">
<path fill="#c4c4c4" style="fill: var(--color5, #c4c4c4)" d="M22.892 32h-13.783c-5.022 0-9.108-4.087-9.108-9.108v-13.783c0-5.022 4.087-9.108 9.108-9.108h13.783c5.022 0 9.108 4.087 9.108 9.108v13.786c0 5.019-4.087 9.106-9.108 9.106zM9.108 2.743c-3.51 0-6.365 2.855-6.365 6.365v13.786c0 3.51 2.855 6.365 6.365 6.365h13.783c3.51 0 6.365-2.855 6.365-6.365v-13.786c0-3.51-2.855-6.365-6.365-6.365h-13.783z"></path>
<path fill="#000" style="fill: var(--color4, #000)" d="M22.892 32h-13.783c-5.022 0-9.108-4.087-9.108-9.108v-13.783c0-5.022 4.087-9.108 9.108-9.108h13.783c5.022 0 9.108 4.087 9.108 9.108v13.786c0 5.019-4.087 9.106-9.108 9.106zM9.108 2.743c-3.51 0-6.365 2.855-6.365 6.365v13.786c0 3.51 2.855 6.365 6.365 6.365h13.783c3.51 0 6.365-2.855 6.365-6.365v-13.786c0-3.51-2.855-6.365-6.365-6.365h-13.783z"></path>
<path fill="#c4c4c4" style="fill: var(--color5, #c4c4c4)" d="M16.002 24.194c-4.518 0-8.194-3.676-8.194-8.194s3.676-8.194 8.194-8.194c4.518 0 8.194 3.676 8.194 8.194s-3.676 8.194-8.194 8.194zM16.002 10.55c-3.006 0-5.45 2.445-5.45 5.45s2.445 5.45 5.45 5.45c3.006 0 5.45-2.445 5.45-5.45s-2.445-5.45-5.45-5.45z"></path>
<path fill="#000" style="fill: var(--color4, #000)" d="M16.002 24.194c-4.518 0-8.194-3.676-8.194-8.194s3.676-8.194 8.194-8.194c4.518 0 8.194 3.676 8.194 8.194s-3.676 8.194-8.194 8.194zM16.002 10.55c-3.006 0-5.45 2.445-5.45 5.45s2.445 5.45 5.45 5.45c3.006 0 5.45-2.445 5.45-5.45s-2.445-5.45-5.45-5.45z"></path>
<path fill="#c4c4c4" style="fill: var(--color5, #c4c4c4)" d="M26.514 7.34c0 1.088-0.883 1.968-1.968 1.968-1.088 0-1.97-0.88-1.97-1.968s0.883-1.97 1.97-1.97c1.088 0 1.968 0.883 1.968 1.97z"></path>
<path fill="#000" style="fill: var(--color4, #000)" d="M26.514 7.34c0 1.088-0.883 1.968-1.968 1.968-1.088 0-1.97-0.88-1.97-1.968s0.883-1.97 1.97-1.97c1.088 0 1.968 0.883 1.968 1.97z"></path>
</symbol>
<symbol id="icon-logo" viewBox="0 0 61 32">
<path fill="#390" style="fill: var(--color6, #390)" d="M21.875 0h38.699v32h-38.699v-32z"></path>
<path fill="#fff" style="fill: var(--color2, #fff)" d="M54.885 24.73c0 1.472-1.186 2.657-2.679 2.657-1.472 0-2.679-1.186-2.679-2.657s1.186-2.657 2.679-2.657c1.472 0 2.679 1.208 2.679 2.657z"></path>
<path fill="#fff" style="fill: var(--color2, #fff)" d="M57.433 15.462c0 1.054-0.857 1.911-1.911 1.911s-1.911-0.857-1.911-1.911c0-1.054 0.857-1.911 1.911-1.911 1.054 0.022 1.911 0.857 1.911 1.911z"></path>
<path fill="#fff" style="fill: var(--color2, #fff)" d="M48.977 18.559c0 0.966-0.791 1.735-1.757 1.735s-1.757-0.769-1.757-1.735 0.791-1.735 1.757-1.735 1.757 0.769 1.757 1.735z"></path>
<path fill="#fff" style="fill: var(--color2, #fff)" d="M53.37 10.125c0 1.054-0.857 1.911-1.911 1.911s-1.911-0.857-1.911-1.911 0.857-1.911 1.911-1.911c1.054 0.022 1.911 0.879 1.911 1.911z"></path>
<path fill="#fff" style="fill: var(--color2, #fff)" d="M49.966 3.997c0 0.637-0.527 1.164-1.164 1.164s-1.164-0.527-1.164-1.164 0.527-1.164 1.164-1.164c0.659 0 1.164 0.505 1.164 1.164z"></path>
<path fill="#fff" style="fill: var(--color2, #fff)" d="M54.424 6.567c0 0.439-0.373 0.813-0.813 0.813-0.461 0-0.813-0.373-0.813-0.813s0.373-0.813 0.813-0.813c0.439 0 0.813 0.351 0.813 0.813z"></path>
<path fill="#fff" style="fill: var(--color2, #fff)" d="M45.727 3.272c0 0.944-0.769 1.691-1.713 1.691s-1.713-0.769-1.713-1.691c0-0.944 0.769-1.691 1.713-1.691s1.713 0.747 1.713 1.691z"></path>
<path fill="#fff" style="fill: var(--color2, #fff)" d="M57.060 20.623c0 0.681-0.549 1.23-1.23 1.23s-1.23-0.549-1.23-1.23 0.549-1.23 1.23-1.23 1.23 0.549 1.23 1.23z"></path>
<path fill="#fff" style="fill: var(--color2, #fff)" d="M57.806 29.43c0 0.681-0.549 1.23-1.23 1.23s-1.23-0.549-1.23-1.23 0.549-1.23 1.23-1.23 1.23 0.549 1.23 1.23z"></path>
<path fill="#fff" style="fill: var(--color2, #fff)" d="M6.457 28.969h-5.403v-25.455h1.581v23.874h3.822z"></path>
<path fill="#000" style="fill: var(--color4, #000)" d="M13.266 25.323c0 0.966-0.264 1.823-0.813 2.57-0.615 0.813-1.406 1.208-2.35 1.208-0.966 0-1.757-0.395-2.372-1.208-0.549-0.769-0.813-1.625-0.813-2.57v-15.44h1.581v15.44c0 0.549 0.132 1.032 0.395 1.45 0.307 0.505 0.703 0.769 1.208 0.769s0.9-0.264 1.186-0.769c0.264-0.417 0.395-0.9 0.395-1.45v-15.44h1.581v15.44z"></path>
<path fill="#000" style="fill: var(--color4, #000)" d="M20.513 28.969h-1.669l-1.515-6.325-1.537 6.325h-1.669l2.372-9.532-2.372-9.554h1.669l1.537 6.347 1.515-6.347h1.669l-2.35 9.554z"></path>
<path fill="#000" style="fill: var(--color4, #000)" d="M28.486 28.969h-5.425v-25.455h1.603v23.874h3.822z"></path>
<path fill="#000" style="fill: var(--color4, #000)" d="M28.969 9.883h1.581v19.108h-1.581v-19.108z"></path>
<path fill="#000" style="fill: var(--color4, #000)" d="M37.93 28.969h-1.581l-3.185-12.563v12.563h-1.581v-19.086h1.581l3.185 12.563v-12.563h1.581z"></path>
<path fill="#000" style="fill: var(--color4, #000)" d="M45.288 28.969h-1.669l-3.119-8.522v8.522h-1.581v-19.086h1.581v8.434l3.119-8.434h1.669l-3.404 9.554z"></path>
</symbol>
<symbol id="icon-man" viewBox="0 0 32 32">
<path d="M14.222 27.556c7.364 0 13.333-5.97 13.333-13.333s-5.97-13.333-13.333-13.333c-7.364 0-13.333 5.97-13.333 13.333s5.97 13.333 13.333 13.333z"></path>
<path fill="#fff" style="fill: var(--color2, #fff)" d="M14.304 6.165c-2.294 0-4.169 1.875-4.169 4.169s1.875 4.169 4.169 4.169c2.294 0 4.169-1.875 4.169-4.169s-1.875-4.169-4.169-4.169z"></path>
<path fill="#fff" style="fill: var(--color2, #fff)" d="M21.454 17.835c-0.11-0.273-0.255-0.528-0.419-0.764-0.837-1.238-2.13-2.057-3.587-2.258-0.182-0.018-0.382 0.018-0.528 0.128-0.764 0.565-1.675 0.856-2.622 0.856s-1.857-0.291-2.622-0.856c-0.146-0.109-0.346-0.164-0.528-0.128-1.457 0.2-2.767 1.020-3.587 2.258-0.164 0.237-0.309 0.51-0.419 0.764-0.055 0.109-0.036 0.237 0.018 0.346 0.146 0.255 0.327 0.51 0.492 0.728 0.255 0.346 0.528 0.655 0.837 0.947 0.255 0.255 0.546 0.492 0.837 0.728 1.438 1.074 3.168 1.638 4.952 1.638s3.514-0.565 4.952-1.638c0.291-0.218 0.583-0.473 0.837-0.728 0.291-0.291 0.583-0.601 0.837-0.947 0.182-0.237 0.346-0.473 0.492-0.728 0.093-0.109 0.111-0.237 0.057-0.346z"></path>
</symbol>
<symbol id="icon-Sicial_03" viewBox="0 0 32 32">
<path fill="#fff" style="fill: var(--color2, #fff)" d="M28.343 12.343c0 6.817-5.526 12.343-12.343 12.343s-12.343-5.526-12.343-12.343c0-6.817 5.526-12.343 12.343-12.343s12.343 5.526 12.343 12.343z"></path>
<path fill="#db414b" style="fill: var(--color1, #db414b)" d="M22.575 15.941c-0.158 0.559-0.621 1-1.209 1.151-1.073 0.279-5.366 0.279-5.366 0.279s-4.293 0-5.366-0.269c-0.576-0.151-1.051-0.602-1.209-1.162-0.283-1.022-0.283-3.141-0.283-3.141s0-2.13 0.282-3.141c0.158-0.559 0.621-1 1.209-1.151 1.085-0.28 5.366-0.28 5.366-0.28s4.293 0 5.366 0.269c0.587 0.15 1.050 0.592 1.209 1.151 0.282 1.022 0.282 3.141 0.282 3.141s0.011 2.13-0.282 3.152zM14.633 10.842v3.916l3.57-1.958-3.57-1.958z"></path>
</symbol>
<symbol id="icon-Social_01" viewBox="0 0 32 32">
<path fill="#fff" style="fill: var(--color2, #fff)" d="M28.343 12.343c0 6.817-5.526 12.343-12.343 12.343s-12.343-5.526-12.343-12.343c0-6.817 5.526-12.343 12.343-12.343s12.343 5.526 12.343 12.343z"></path>
<path fill="#db414b" style="fill: var(--color1, #db414b)" d="M10.558 10.138v4.955c0 1.805 1.469 3.275 3.274 3.275h4.955c1.805 0 3.274-1.469 3.274-3.274v-4.955c0-1.805-1.469-3.274-3.274-3.274h-4.956c-1.805 0-3.274 1.469-3.274 3.274zM21.076 15.093c0 1.262-1.026 2.288-2.288 2.288h-4.956c-1.262 0-2.288-1.026-2.288-2.288v-4.955c0-1.262 1.026-2.288 2.288-2.288h4.956c1.262 0 2.288 1.026 2.288 2.288v4.955z"></path>
<path fill="#db414b" style="fill: var(--color1, #db414b)" d="M13.364 12.615c0 1.624 1.322 2.946 2.946 2.946s2.946-1.322 2.946-2.946c0-1.624-1.322-2.946-2.946-2.946s-2.946 1.322-2.946 2.946zM18.27 12.615c0 1.081-0.879 1.959-1.959 1.959s-1.959-0.879-1.959-1.959c0-1.081 0.879-1.959 1.959-1.959s1.959 0.879 1.959 1.959z"></path>
<path fill="#db414b" style="fill: var(--color1, #db414b)" d="M19.424 8.836c-0.391 0-0.708 0.317-0.708 0.707s0.317 0.708 0.708 0.708 0.708-0.317 0.708-0.708c0-0.391-0.317-0.707-0.708-0.707z"></path>
</symbol>
<symbol id="icon-Social_02" viewBox="0 0 32 32">
<path fill="#fff" style="fill: var(--color2, #fff)" d="M28.343 12.343c0 6.817-5.526 12.343-12.343 12.343s-12.343-5.526-12.343-12.343c0-6.817 5.526-12.343 12.343-12.343s12.343 5.526 12.343 12.343z"></path>
<path fill="#db414b" style="fill: var(--color1, #db414b)" d="M17.021 9.964v-0.955c0-0.457 0.356-0.568 0.608-0.568 0.241 0 1.537 0 1.537 0v-2.041h-2.122c-2.351 0-2.88 1.513-2.88 2.489v1.075h-1.365v2.379h1.377c0 2.698 0 5.943 0 5.943h2.741c0 0 0-3.285 0-5.943h2.030l0.092-0.936 0.16-1.443h-2.179z"></path>
</symbol>
<symbol id="icon-tel" viewBox="0 0 32 32">
<path d="M14.222 27.556c7.364 0 13.333-5.97 13.333-13.333s-5.97-13.333-13.333-13.333c-7.364 0-13.333 5.97-13.333 13.333s5.97 13.333 13.333 13.333z"></path>
<path fill="#fff" style="fill: var(--color2, #fff)" d="M20.958 18.156l-2.762-1.967c-0.251-0.178-0.597-0.133-0.793 0.104l-0.854 1.030c-0.184 0.223-0.503 0.279-0.752 0.132-0.547-0.327-1.198-0.639-2.606-2.14s-1.682-2.167-1.975-2.733c-0.133-0.257-0.057-0.573 0.178-0.742l1.081-0.789c0.249-0.182 0.315-0.524 0.152-0.785l-1.793-2.878c-0.166-0.266-0.512-0.355-0.786-0.202l-1.201 0.671c-0.325 0.178-0.568 0.474-0.68 0.827-0.359 1.166-0.503 3.757 3.525 8.041s6.623 4.299 7.809 4.013c0.359-0.090 0.669-0.315 0.867-0.628l0.744-1.157c0.17-0.265 0.102-0.615-0.153-0.797z"></path>
</symbol>
<symbol id="icon-top" viewBox="0 0 40 32">
<path fill="#db414b" style="fill: var(--color1, #db414b)" d="M26.516 16.238l13.485 9.92v-20.259l-13.485 10.339z"></path>
<path fill="#db414b" style="fill: var(--color1, #db414b)" d="M0 5.899v20.259l13.485-9.92-13.485-10.339z"></path>
<path fill="#db414b" style="fill: var(--color1, #db414b)" d="M37.5 0h-35c-1.247 0-2.238 1.082-2.426 2.476l19.925 15.275 19.926-15.275c-0.188-1.394-1.178-2.476-2.426-2.476z"></path>
<path fill="#db414b" style="fill: var(--color1, #db414b)" d="M24.225 17.996l-3.538 2.711c-0.21 0.16-0.448 0.238-0.687 0.238-0.24 0-0.477-0.078-0.687-0.238l-3.538-2.714-15.695 11.551c0.192 1.382 1.177 2.455 2.42 2.455h35c1.242 0 2.227-1.073 2.42-2.455l-15.695-11.549z"></path>
</symbol>
<symbol id="icon-Visa_Inc_logo-1" viewBox="0 0 91 32">
<path d="M0 0h91.077v29.627h-91.077v-29.627z"></path>
</symbol>
</defs>
</svg>
